<?xml version="1.0" encoding="UTF-8" standalone="no"?>
<svg
   version="1.1"
   viewBox="-5 -10 88 88"
   id="svg8"
   sodipodi:docname="command.svg"
   width="88"
   height="88"
   inkscape:version="1.2.2 (b0a8486541, 2022-12-01)"
   xmlns:inkscape="http://www.inkscape.org/namespaces/inkscape"
   xmlns:sodipodi="http://sodipodi.sourceforge.net/DTD/sodipodi-0.dtd"
   xmlns="http://www.w3.org/2000/svg"
   xmlns:svg="http://www.w3.org/2000/svg">
  <defs
     id="defs12" />
  <sodipodi:namedview
     id="namedview10"
     pagecolor="#ffffff"
     bordercolor="#666666"
     borderopacity="1.0"
     inkscape:showpageshadow="2"
     inkscape:pageopacity="0.0"
     inkscape:pagecheckerboard="0"
     inkscape:deskcolor="#d1d1d1"
     showgrid="false"
     inkscape:zoom="6.4962963"
     inkscape:cx="20.858039"
     inkscape:cy="51.490878"
     inkscape:window-width="1918"
     inkscape:window-height="1078"
     inkscape:window-x="0"
     inkscape:window-y="0"
     inkscape:window-maximized="1"
     inkscape:current-layer="svg8" />
  <path
     d="m 21.527577,7.9758417 c -1.9844,-1.9766 -4.7461,-2.9609 -7.5312,-2.6875 -2.918,0.26953 -5.5429997,1.8867 -7.0937996,4.375 C 2.8400773,16.100842 0.84787732,23.628342 1.1955773,31.233342 c 0.34766,7.6016 3.0156,14.918 7.6445,20.961 l -4.4062,13.281 c -0.95312,2.8555 -0.47656,5.9922 1.2812001,8.4375 1.7616999,2.4336 4.5858996,3.875 7.5937996,3.875 h 16.312 c 5.1758,0 9.375,-4.1992 9.375,-9.375 v -1.3438 c 6.9375,-0.06641 13.719,-2.0586 19.594,-5.75 2.4453,-1.5195 4.0586,-4.0742 4.375,-6.9375 0.32031,-2.8398 -0.66797,-5.668 -2.6875,-7.6875 z m 8.0938,63.5620003 h -16.312 c -0.99609,-0.01563 -1.9219,-0.50391 -2.5,-1.3125 -0.58984,-0.8125 -0.75,-1.8594 -0.4375,-2.8125 l 3.3125,-10 c 5.3477,4.8203 11.961,8.0078 19.062,9.1875 v 1.8125 c 0,0.82812 -0.32812,1.625 -0.91406,2.2109 -0.58594,0.58594 -1.3828,0.91406 -2.2109,0.91406 z m 27.125,-17.875 c -0.11719,0.97656 -0.66797,1.8477 -1.5,2.375 -8.0508,5.0078 -17.938,6.0938 -26.883,2.9453 -8.9453,-3.1445 -15.977,-10.18 -19.1129997,-19.129 -3.1405999,-8.9453 -2.0508,-18.832 2.9647997,-26.879 0.51172,-0.82812 1.375,-1.3711 2.3438,-1.4688 h 0.375 c 0.82031,0.0039 1.6055,0.32812 2.1875,0.90625 l 38.75,38.75 c 0.66797,0.66406 1,1.5938 0.90625,2.5312 z m 19.969,-19.375 c -0.11328,1.6406 -1.4805,2.9102 -3.125,2.9062 h -0.21875 c -1.7148,-0.13281 -3,-1.6289 -2.875,-3.3438 0.65625,-9.4023 -2.4336,-18.68 -8.5938,-25.8120003 -7.3672,-7.92190001 -17.887,-12.141 -28.688,-11.5 -1.7148,0.125 -3.2109,-1.1602 -3.3438,-2.875 -0.07031,-0.82812 0.19531,-1.6523 0.73438,-2.2852 0.53906,-0.63281 1.3125,-1.0273 2.1406,-1.0898 12.746,-0.7617197 25.168,4.2266 33.844,13.594 7.2578,8.4141003 10.91,19.3520003 10.156,30.4380003 z m -19.812,-21.875 c 5.1758,5.9805 7.7812,13.766 7.25,21.656 -0.11328,1.6406 -1.4805,2.9102 -3.125,2.9062 h -0.15625 c -1.7148,-0.13281 -3,-1.6289 -2.875,-3.3438 0.42969,-6.1992 -1.6016,-12.32 -5.6562,-17.031 -4.9219,-5.1992 -11.883,-7.9648003 -19.031,-7.5625003 -1.7266,0.15625 -3.25,-1.1172 -3.4062,-2.8438 -0.1562,-1.7266 1.1172,-3.25 2.8438,-3.4062 9.125,-0.5625 18.02,3.0312 24.188,9.7812003 z"
     id="path2" />
</svg>
