<?xml version="1.0" encoding="UTF-8" standalone="no"?>
<svg
   version="1.1"
   x="0px"
   y="0px"
   viewBox="0 0 80 80"
   xml:space="preserve"
   id="svg8"
   sodipodi:docname="influence.svg"
   width="80"
   height="80"
   inkscape:version="1.2.2 (b0a8486541, 2022-12-01)"
   xmlns:inkscape="http://www.inkscape.org/namespaces/inkscape"
   xmlns:sodipodi="http://sodipodi.sourceforge.net/DTD/sodipodi-0.dtd"
   xmlns="http://www.w3.org/2000/svg"
   xmlns:svg="http://www.w3.org/2000/svg"><defs
     id="defs12" /><sodipodi:namedview
     id="namedview10"
     pagecolor="#ffffff"
     bordercolor="#666666"
     borderopacity="1.0"
     inkscape:showpageshadow="2"
     inkscape:pageopacity="0.0"
     inkscape:pagecheckerboard="0"
     inkscape:deskcolor="#d1d1d1"
     showgrid="false"
     inkscape:zoom="7.016"
     inkscape:cx="24.301596"
     inkscape:cy="37.842075"
     inkscape:window-width="1918"
     inkscape:window-height="1078"
     inkscape:window-x="0"
     inkscape:window-y="0"
     inkscape:window-maximized="1"
     inkscape:current-layer="svg8" /><path
     d="m 8.0097428,39.191722 -1.332947,1.867188 c -1.744141,2.442383 -1.174805,5.848144 1.267578,7.592285 0.956055,0.682617 2.0605472,1.010742 3.1542972,1.010742 0.331421,0 0.660339,-0.039 0.985596,-0.09851 -0.140381,0.659302 -0.165284,1.344299 -0.05103,2.029174 0.239258,1.434082 1.022461,2.688965 2.206055,3.533692 0.933594,0.666015 2.026367,1.013672 3.15039,1.013672 0.301758,0 0.605469,-0.0249 0.908204,-0.07568 0.312377,-0.05212 0.611694,-0.140991 0.904663,-0.243225 -0.0091,1.710388 0.774475,3.400574 2.269165,4.467346 0.933593,0.666016 2.026367,1.013672 3.15039,1.013672 0.301758,0 0.605469,-0.0249 0.908203,-0.07568 0.684632,-0.114197 1.324097,-0.359864 1.901734,-0.706299 0.212829,1.405823 0.963928,2.728393 2.209594,3.61792 0.956055,0.682617 2.060547,1.010742 3.154297,1.010742 1.700196,0 3.376953,-0.792969 4.438477,-2.278809 l 1.52948,-2.144104 3.6922,2.584534 c 0.924804,0.648437 2.002929,0.986328 3.110351,0.986328 0.317383,0 0.636719,-0.02783 0.956055,-0.08398 1.431641,-0.25293 2.679687,-1.047364 3.513672,-2.23877 0.767212,-1.096191 1.048767,-2.377197 0.934387,-3.615539 0.770691,0.399536 1.615601,0.612609 2.480652,0.612609 0.317383,0 0.637695,-0.02783 0.957031,-0.08398 1.431641,-0.25293 2.679688,-1.047852 3.513672,-2.238281 0.777771,-1.110596 1.08783,-2.442139 0.923767,-3.77771 0.609131,0.230835 1.249512,0.363159 1.904358,0.363159 0.317383,0 0.637695,-0.02783 0.957031,-0.08398 1.431641,-0.25293 2.679688,-1.047852 3.513672,-2.238282 0.760864,-1.086486 1.04364,-2.354431 0.937683,-3.582641 0.846558,0.507263 1.794678,0.78479 2.771302,0.78479 0.318359,0 0.637695,-0.02783 0.957031,-0.08398 1.43164,-0.252441 2.679687,-1.047363 3.513672,-2.238281 0.833984,-1.190918 1.154297,-2.635254 0.901367,-4.066894 -0.175354,-0.996765 -0.627991,-1.893616 -1.280029,-2.634339 l 6.600341,-5.245056 c 0.414063,-0.328613 0.5,-0.92334 0.197266,-1.356445 L 67.82621,15.361643 c -0.152344,-0.217285 -0.384766,-0.365234 -0.645508,-0.411132 -0.260742,-0.04541 -0.530273,0.01416 -0.74707,0.165527 l -2.350586,1.645996 c -2.729492,1.910156 -6.19336,2.281738 -9.264649,0.995117 l -4.577148,-1.918457 c -3.338013,-1.398865 -7.018921,-1.290405 -10.229797,0.19159 -3.237366,-1.492188 -6.954956,-1.572327 -10.252625,-0.19159 l -4.577148,1.918457 c -3.071289,1.28711 -6.536133,0.915527 -9.264649,-0.995117 l -2.350586,-1.645996 c -0.216796,-0.151367 -0.485351,-0.210938 -0.74707,-0.165527 -0.260742,0.0459 -0.493164,0.193847 -0.645508,0.411132 L 0.18070173,32.489086 c -0.152344,0.217285 -0.211914,0.486328 -0.165039,0.747558 0.0459,0.261231 0.193359,0.493164 0.411133,0.645508 z m 1.09674,7.831543 c -1.544922,-1.103027 -1.905273,-3.257324 -0.802734,-4.802246 l 2.0634772,-2.889648 c 0.533203,-0.748047 1.327148,-1.243652 2.234375,-1.395019 0.905273,-0.153809 1.819335,0.05957 2.567382,0.59375 1.542176,1.100585 1.902039,3.248718 0.807679,4.793579 l -1.706971,2.392456 -0.360473,0.504883 c -1.104493,1.545898 -3.258789,1.903808 -4.8027352,0.802245 z m 8.8623052,7.06836 c -0.907227,0.151367 -1.819336,-0.05908 -2.567383,-0.593262 -0.748047,-0.534179 -1.24414,-1.328125 -1.395508,-2.234863 -0.151367,-0.907227 0.05957,-1.818848 0.594727,-2.567383 l 2.136047,-2.993896 0.862976,-1.208252 c 0.0014,-0.002 0.0021,-0.0042 0.0035,-0.0062 l 0.932007,-1.306274 c 1.105469,-1.545899 3.259766,-1.903809 4.802735,-0.802246 0.749023,0.534179 1.24414,1.328125 1.395507,2.235351 0.152344,0.906738 -0.05859,1.81836 -0.592773,2.566895 l -3.9375,5.515136 c -0.533203,0.748047 -1.327148,1.243653 -2.234375,1.39502 z m 7.232422,5.162109 c -0.905274,0.152832 -1.819336,-0.05859 -2.567383,-0.593261 -1.544922,-1.10254 -1.905273,-3.256836 -0.802734,-4.802247 l 3.936523,-5.514648 c 0.671875,-0.94043 1.732422,-1.441406 2.807617,-1.441406 0.692383,0 1.390625,0.207519 1.995118,0.63916 1.544921,1.103027 1.905273,3.257813 0.802734,4.802734 l -0.931335,1.304383 c -0.0021,0.003 -0.005,0.0051 -0.0071,0.0081 l -1.391906,1.951355 -1.607117,2.250794 c -0.533203,0.748047 -1.327149,1.243652 -2.234375,1.395019 z m 10.405273,2.454102 c -1.104492,1.546387 -3.259765,1.903808 -4.802734,0.802246 -1.544922,-1.103027 -1.905274,-3.257813 -0.801758,-4.802734 l 1.420654,-1.991578 0.642701,-0.900329 c 0.535156,-0.746643 1.326721,-1.24115 2.232544,-1.392273 0.911132,-0.152832 1.819335,0.05957 2.567382,0.59375 0.749024,0.53418 1.244141,1.328125 1.395508,2.234863 0.146851,0.874512 -0.05133,1.749634 -0.544678,2.482361 -0.0065,0.0086 -0.01648,0.01263 -0.02271,0.02155 -0.01483,0.02118 -0.01678,0.04627 -0.02972,0.06818 z m 13.861328,-44.024415 4.577149,1.918457 c 3.708984,1.554687 7.890625,1.104492 11.18457,-1.201172 l 1.532227,-1.072754 10.878906,15.537599 -6.1875,4.916992 -17.994141,-12.64209 c -1.693359,-1.171388 -3.673828,-1.756349 -5.654297,-1.756349 -1.998046,0 -3.996093,0.596192 -5.698242,1.786622 l -8.37207,5.855469 c -1.556641,1.087402 -3.705078,0.709961 -4.794922,-0.844726 -1.088867,-1.555665 -0.709961,-3.706543 0.84668,-4.796875 l 9.37207,-6.593751 c 3.037109,-2.125489 6.890625,-2.539551 10.30957,-1.107422 z m -36.229492,-0.355469 1.532227,1.072754 c 3.292969,2.305664 7.475586,2.755859 11.18457,1.201172 l 4.577148,-1.918457 c 2.316163,-0.9693 4.874573,-1.077027 7.24231,-0.364258 l -9.136841,6.428711 c -2.458008,1.721192 -3.057617,5.122071 -1.336914,7.580567 0.833985,1.19043 2.082031,1.985352 3.513672,2.237793 1.431641,0.251465 2.875977,-0.06787 4.066406,-0.901367 l 8.372071,-5.855469 c 2.707031,-1.892578 6.351562,-1.902832 9.0625,-0.02832 l 18.599609,13.067871 c 6.1e-4,4.27e-4 0.0013,5.49e-4 0.002,9.77e-4 v 0 c 0.75293,0.527343 1.25586,1.316406 1.415039,2.222168 0.160156,0.905761 -0.04297,1.819336 -0.570312,2.572754 -0.527344,0.752929 -1.316407,1.255859 -2.22168,1.415527 -0.905273,0.160644 -1.819336,-0.04199 -2.573242,-0.570313 l -3.082459,-2.158203 c -1.83e-4,-1.22e-4 -3.66e-4,-3.66e-4 -5.49e-4,-4.88e-4 l -9.220703,-6.456055 c -0.451172,-0.315918 -1.075195,-0.206054 -1.392578,0.245606 -0.316406,0.452637 -0.207031,1.076172 0.246094,1.393066 l 1.3208,0.924805 c 1.84e-4,1.22e-4 3.06e-4,3.66e-4 4.89e-4,4.88e-4 l 7.900024,5.53125 c 0.752442,0.527466 1.25531,1.316162 1.414429,2.22168 0.160156,0.905762 -0.04297,1.819336 -0.570313,2.572266 -0.527343,0.753418 -1.316406,1.256347 -2.221679,1.416015 -0.90918,0.160645 -1.821289,-0.04346 -2.573243,-0.570312 l -9.219726,-6.456055 c -0.450195,-0.315918 -1.076172,-0.207031 -1.392578,0.245605 -0.316406,0.452637 -0.207031,1.076172 0.246094,1.393067 l 7.017578,4.914062 c 0.752929,0.527344 1.255859,1.316407 1.415039,2.222168 0.160156,0.905762 -0.04297,1.819336 -0.570313,2.572266 -0.527344,0.753418 -1.316406,1.256348 -2.222656,1.416016 -0.904297,0.160156 -1.820312,-0.04395 -2.572266,-0.570313 l -2.788621,-1.952698 c -1.83e-4,-1.22e-4 -3.05e-4,-3.05e-4 -4.88e-4,-4.27e-4 l -1.688232,-1.182129 -2.540284,-1.778808 c -0.451172,-0.315918 -1.076172,-0.207032 -1.392578,0.245605 -0.316406,0.452637 -0.207031,1.076172 0.246094,1.393066 l 4.229004,2.961365 c 1.55426,1.088501 1.932983,3.239014 0.844238,4.794006 -0.527344,0.753418 -1.316406,1.256348 -2.221679,1.416016 -0.904297,0.161133 -1.81836,-0.04199 -2.573243,-0.570801 l -3.766113,-2.636719 c 0.434265,-0.968444 0.576294,-2.042663 0.396973,-3.113281 -0.239258,-1.434082 -1.022461,-2.688476 -2.206055,-3.533203 -1.244629,-0.888611 -2.739563,-1.16925 -4.138855,-0.913635 0.433716,-2.053833 -0.341553,-4.266174 -2.156067,-5.561951 -1.494751,-1.067749 -3.34845,-1.259399 -4.963135,-0.694519 0.0091,-1.710205 -0.774719,-3.400329 -2.269287,-4.46759 -1.81488,-1.295166 -4.158142,-1.308533 -5.959533,-0.231873 -0.212647,-1.405884 -0.963562,-2.728332 -2.209412,-3.617248 -1.183594,-0.844239 -2.624023,-1.178223 -4.058594,-0.938477 -1.184814,0.197632 -2.231994,0.783264 -3.0413212,1.641846 l -6.838562,-4.78833 z"
     id="path2" /></svg>
