<?xml version="1.0" encoding="UTF-8" standalone="no"?>
<svg
   version="1.1"
   x="0px"
   y="0px"
   viewBox="0 0 80 79.999999"
   xml:space="preserve"
   id="svg12"
   sodipodi:docname="intel.svg"
   width="80"
   height="80"
   inkscape:version="1.2.2 (b0a8486541, 2022-12-01)"
   xmlns:inkscape="http://www.inkscape.org/namespaces/inkscape"
   xmlns:sodipodi="http://sodipodi.sourceforge.net/DTD/sodipodi-0.dtd"
   xmlns="http://www.w3.org/2000/svg"
   xmlns:svg="http://www.w3.org/2000/svg"><defs
     id="defs16" /><sodipodi:namedview
     id="namedview14"
     pagecolor="#ffffff"
     bordercolor="#666666"
     borderopacity="1.0"
     inkscape:showpageshadow="2"
     inkscape:pageopacity="0.0"
     inkscape:pagecheckerboard="0"
     inkscape:deskcolor="#d1d1d1"
     showgrid="false"
     inkscape:zoom="7.016"
     inkscape:cx="24.301596"
     inkscape:cy="37.414481"
     inkscape:window-width="1918"
     inkscape:window-height="1078"
     inkscape:window-x="0"
     inkscape:window-y="0"
     inkscape:window-maximized="1"
     inkscape:current-layer="svg12" /><g
     id="g6"
     transform="translate(-10,-10)"><path
       d="M 50,25.2 C 23.1,25.2 10,50 10,50 10,50 24.5,74.8 50,74.8 75.5,74.8 90,50 90,50 90,50 76.9,25.2 50,25.2 Z m 0,44.4 C 39.2,69.6 30.4,60.8 30.4,50 30.4,39.2 39.2,30.4 50,30.4 c 10.8,0 19.6,8.8 19.6,19.6 0,10.8 -8.8,19.6 -19.6,19.6 z"
       id="path2" /><path
       d="m 50,41.4 c -4.8,0 -8.6,3.9 -8.6,8.6 0,4.8 3.9,8.6 8.6,8.6 4.7,0 8.6,-3.9 8.6,-8.6 0,-4.8 -3.8,-8.6 -8.6,-8.6 z"
       id="path4" /></g></svg>
