<?xml version="1.0" encoding="UTF-8" standalone="no"?>
<svg
   version="1.1"
   viewBox="-5 -10 82.429955 82.500763"
   id="svg910"
   sodipodi:docname="research-search.svg"
   width="82.429955"
   height="82.500763"
   inkscape:version="1.2.2 (b0a8486541, 2022-12-01)"
   xmlns:inkscape="http://www.inkscape.org/namespaces/inkscape"
   xmlns:sodipodi="http://sodipodi.sourceforge.net/DTD/sodipodi-0.dtd"
   xmlns="http://www.w3.org/2000/svg"
   xmlns:svg="http://www.w3.org/2000/svg">
  <defs
     id="defs914" />
  <sodipodi:namedview
     id="namedview912"
     pagecolor="#ffffff"
     bordercolor="#666666"
     borderopacity="1.0"
     inkscape:showpageshadow="2"
     inkscape:pageopacity="0.0"
     inkscape:pagecheckerboard="0"
     inkscape:deskcolor="#d1d1d1"
     showgrid="false"
     inkscape:zoom="6.4962963"
     inkscape:cx="32.557013"
     inkscape:cy="48.720068"
     inkscape:window-width="1918"
     inkscape:window-height="1078"
     inkscape:window-x="0"
     inkscape:window-y="0"
     inkscape:window-maximized="1"
     inkscape:current-layer="svg910" />
  <path
     d="m 46.133443,44.887465 c 7.3477,0.01172 14.281,-3.3984 18.758,-9.2227 4.4805,-5.8203 5.9961,-13.398 4.1016,-20.496 -1.8945,-7.0977003 -6.9844,-12.9100003 -13.77,-15.72700033 -6.7852,-2.81639997 -14.496,-2.31639997 -20.859,1.3555 -6.3633,3.67190003 -10.66,10.09400033 -11.617,17.37900033 -0.96094,7.2812 1.5234,14.598 6.7188,19.793 4.418,4.4219 10.414,6.9102 16.668,6.918 z m 15.625,-8.0195 v -0.0039 c -4.1445,4.1445 -9.7656,6.4688 -15.625,6.4609 v -21.18 l 20.688,6.7305 c -1.0898,3 -2.8242,5.7266 -5.0742,7.9883 z m -31.25,-31.2500003 v -0.0039 c 4.6445,-4.67970003 11.141,-7.0391 17.711,-6.42580003 6.5664,0.60938 12.516,4.12890003 16.215,9.58980003 3.6992,5.4609003 4.7617,12.2930003 2.8945,18.6170003 l -20.539,-6.6758 14.363,-14.3320003 c 0.14844,-0.14453 0.23438,-0.34375 0.23438,-0.55469 0,-0.20703 -0.08594,-0.40625 -0.23438,-0.55078 -0.30469,-0.30469 -0.80078,-0.30469 -1.1055,0 l -15.238,15.2190003 c -0.14844,0.14453 -0.23047,0.34375 -0.23047,0.55078 v 22.188 c -5.6602,-0.38672 -10.953,-2.9414 -14.777,-7.1328 -3.8203,-4.1914 -5.8789,-9.6992 -5.7461,-15.371 0.13672,-5.6719 2.4531,-11.0740003 6.4727,-15.0780003 z M 3.2464426,72.449965 c 2.1875,-0.0039 4.2852,-0.88281 5.8242,-2.4375 l 21.6450004,-21.605 c 8.8398,5.0312 19.574,5.4492 28.773,1.1172 9.2031,-4.332 15.723,-12.871 17.473,-22.891 1.7539,-10.016 -1.4805,-20.2620003 -8.6641,-27.46100033 -7.1875,-7.19529997 -17.426,-10.44899967 -27.445,-8.71479997 -10.023,1.7344 -18.574,8.2383 -22.922,17.434 -4.348,9.1957003 -3.9492,19.9300003 1.0664,28.7770003 l -21.6130004,21.664 c -2.3398,2.3867 -3.0273,5.9375 -1.75,9.0234 1.2773,3.0859 4.27340001,5.1094 7.6133,5.1445 z m 11.2500004,-29.074 c 2.5469,3.7422 5.7773,6.9727 9.5195,9.5195 l -2.082,2.082 v 0.0039 c -1.8711,-1.2617 -3.6133,-2.6953 -5.207,-4.293 -1.5937,-1.5977 -3.0312,-3.3398 -4.293,-5.207 z m 10.676,-43.08200033 c 5.5625,-5.56249997 13.105,-8.68749997 20.973,-8.68749997 7.8633,0 15.406,3.1211 20.969,8.68359997 5.563,5.56250003 8.6875,13.10500033 8.6875,20.97300033 0,7.8633 -3.125,15.406 -8.6875,20.969 -5.5625,5.563 -13.105,8.6875 -20.969,8.6875 -7.8672,0 -15.41,-3.125 -20.973,-8.6875 -5.5898,-5.5469 -8.7344,-13.094 -8.7344,-20.969 0,-7.875 3.1445,-15.4260003 8.7344,-20.96900033 z m -1.1133,43.03900033 c 1.6016,1.6016 3.375,3.0234 5.2812,4.2422 l -4.168,4.168 v -0.0039 c -1.8672,-1.2656 -3.6133,-2.7031 -5.207,-4.3008 -1.6016,-1.5898 -3.0391,-3.332 -4.293,-5.207 l 4.168,-4.168 c 1.2148,1.9023 2.6289,3.668 4.2188,5.2695 z m -25.5740004,16.043 12.7930004,-12.77 c 1.2695,1.8633 2.7109,3.6055 4.3008,5.207 1.5977,1.5977 3.3438,3.0391 5.2109,4.3125 l -12.7620004,12.781 c -2.6328,2.6367 -6.9023,2.6367 -9.5352,0.0039 -2.6367,-2.6289 -2.6367,-6.8984 -0.0078,-9.5352 z"
     id="path908"
     sodipodi:nodetypes="cccccccccccccccccccccccscccsccccccccccccsccsccccccscccssssscsccsccccccsscccccccc" />
</svg>
