<?xml version="1.0" encoding="UTF-8" standalone="no"?>
<svg
   version="1.1"
   viewBox="-5 -10 67.000001 67"
   id="svg16"
   sodipodi:docname="research-reorder.svg"
   width="67"
   height="67"
   inkscape:version="1.2.2 (b0a8486541, 2022-12-01)"
   xmlns:inkscape="http://www.inkscape.org/namespaces/inkscape"
   xmlns:sodipodi="http://sodipodi.sourceforge.net/DTD/sodipodi-0.dtd"
   xmlns="http://www.w3.org/2000/svg"
   xmlns:svg="http://www.w3.org/2000/svg">
  <defs
     id="defs20" />
  <sodipodi:namedview
     id="namedview18"
     pagecolor="#ffffff"
     bordercolor="#666666"
     borderopacity="1.0"
     inkscape:showpageshadow="2"
     inkscape:pageopacity="0.0"
     inkscape:pagecheckerboard="0"
     inkscape:deskcolor="#d1d1d1"
     showgrid="false"
     inkscape:zoom="6.4962963"
     inkscape:cx="20.858039"
     inkscape:cy="40.715507"
     inkscape:window-width="1918"
     inkscape:window-height="1078"
     inkscape:window-x="0"
     inkscape:window-y="0"
     inkscape:window-maximized="1"
     inkscape:current-layer="svg16" />
  <g
     id="g14"
     transform="translate(-21.499101,-26.500523)">
    <path
       d="M 46.191,45.5 24.89,24.199 l -2.1992,2.2109 -2.2109,2.1992 21.301,21.301 2.1992,-2.2109 z"
       id="path2" />
    <path
       d="M 46.191,54.32 60.578,68.718 64.9882,64.3078 50.5902,49.9098 48.391,52.109 Z"
       id="path4" />
    <path
       d="m 22.68,73.422 h 0.01172 l 2.1992,2.1992 21.301,-21.301 -2.2109,-2.1992 -2.1992,-2.2109 -21.301,21.301 z"
       id="path6" />
    <path
       d="m 50.59,49.91 14.398,-14.398 -2.1992,-2.2031 -2.2109,-2.207 -14.387,14.398 2.1992,2.2109 z"
       id="path8" />
    <path
       d="m 56.859,75.68 21.539,7.4219 c 0.55078,0.19141 0.98828,-0.26172 0.80859,-0.80859 l -3.707,-10.773 -3.7109,-10.77 c -0.19141,-0.55078 -0.87109,-0.78125 -1.2305,-0.42188 l -14.117,14.117 c -0.36328,0.36328 -0.12109,1.043 0.41797,1.2344 z"
       id="path10" />
    <path
       d="m 78.672,16.898 -10.773,3.7109 -10.77,3.7109 c -0.55078,0.19141 -0.78125,0.87109 -0.42188,1.2305 l 14.117,14.117 c 0.35938,0.35938 1.0391,0.12109 1.2305,-0.42188 l 7.4219,-21.539 c 0.18359,-0.54688 -0.26562,-0.99609 -0.80469,-0.80859 z"
       id="path12" />
  </g>
</svg>
