<?xml version="1.0" encoding="UTF-8" standalone="no"?>
<svg
   viewBox="0 0 366.3136 463.36414"
   version="1.1"
   id="svg2"
   sodipodi:docname="research-wild.svg"
   width="366.3136"
   height="463.36414"
   inkscape:version="1.4.2 (ebf0e940d0, 2025-05-08)"
   xmlns:inkscape="http://www.inkscape.org/namespaces/inkscape"
   xmlns:sodipodi="http://sodipodi.sourceforge.net/DTD/sodipodi-0.dtd"
   xmlns="http://www.w3.org/2000/svg"
   xmlns:svg="http://www.w3.org/2000/svg">
  <defs
     id="defs2" />
  <sodipodi:namedview
     id="namedview2"
     pagecolor="#ffffff"
     bordercolor="#666666"
     borderopacity="1.0"
     inkscape:showpageshadow="2"
     inkscape:pageopacity="0.0"
     inkscape:pagecheckerboard="0"
     inkscape:deskcolor="#d1d1d1"
     inkscape:zoom="1.7089844"
     inkscape:cx="206.26286"
     inkscape:cy="242.54171"
     inkscape:window-width="1918"
     inkscape:window-height="1078"
     inkscape:window-x="0"
     inkscape:window-y="0"
     inkscape:window-maximized="1"
     inkscape:current-layer="g2" />
  <g
     class=""
     id="g2"
     transform="translate(-43.843389,-24.318)">
    <path
       d="m 272.824,24.318 c -14.929,0.312 -25.66,3.246 -32.767,8.446 L 142.899,84.91 88.793,158.424 C 77.42,175.98 85.518,210 121.112,188.197 l 38.9,-51.351 c 49.476,-42.711 150.484,-23.032 102.586,62.591 -23.53,49.582 -12.457,73.79 17.76,83.95 l 13.812,-46.381 c 23.95,-53.825 68.502,-63.51 66.684,-106.905 l 49.303,7.725 -0.866,-112.045 z m -54.09,103.338 c -17.41,-0.3 -34.485,6.898 -46.92,17.375 l -39.044,51.33 c 10.713,8.506 21.413,3.959 32.125,-6.363 12.626,6.394 22.365,-3.522 30.365,-23.297 3.317,-13.489 8.21,-23.037 23.475,-39.045 z m -32.617,88.324 c -1.80919,0.0565 -3.58852,0.47649 -5.232,1.235 l -129.164,59.51 c -6.784,3.13 -9.763,11.202 -6.633,17.992 l 85.27,185.08 c 3.132,6.783 11.205,9.779 18,6.635 l 129.15,-59.504 c 6.796,-3.137 9.777,-11.198 6.647,-18 L 198.87,223.86 c -2.343,-5.097 -7.473,-8.043 -12.754,-7.88 z m -29.767,50.06 c 7.794,0.113 14.913,2.053 21.092,5.847 10.758,6.604 18.63,20.93 19.644,35.754 0.698,10.184 -1.712,17.837 -12.553,39.873 -3.879,7.885 -5.634,15.27 -5.072,21.355 0.46,4.973 0.786,5.855 3.639,9.844 l 3.135,4.38 -1.754,0.98 c -0.965,0.538 -7.097,3.1 -13.627,5.693 -6.918,2.746 -12.316,4.496 -12.934,4.193 -0.583,-0.286 -2.352,-2.62 -3.931,-5.188 -7.525,-12.227 -7.225,-27.53 0.878,-44.627 6.655,-14.04 8.47,-19.966 7.952,-25.974 -0.815,-9.44 -6.743,-16.478 -14.834,-17.617 -6.021,-0.848 -10.668,0.553 -18.912,5.703 -8.298,5.183 -13.941,10.708 -19.055,18.656 -1.8,2.797 -3.407,5.053 -3.57,5.014 -0.164,-0.04 -3.206,-7.256 -6.758,-16.037 l -6.46,-15.967 3.23,-3.666 c 5.809,-6.598 11.758,-11.166 22.226,-17.065 13.44,-7.573 26.273,-11.314 37.664,-11.15 z m 33.308,133.048 c 6.463,0.125 12.18,3.215 15.7,8.963 4.296,7.015 4.185,13.838 -0.334,20.752 -2.89,4.42 -8.953,8.313 -15.04,9.654 -15.132,3.335 -28.038,-9.343 -23.726,-23.307 1.817,-5.885 5.325,-9.937 11.273,-13.02 4.104,-2.125 8.25,-3.117 12.127,-3.042 z"
       fill="#000000"
       fill-opacity="1"
       id="path2"
       sodipodi:nodetypes="cccccccccccccscccccsccccccccccccccccccccccccccccccccccssccccs" />
  </g>
</svg>
