<?xml version="1.0" encoding="UTF-8" standalone="no"?>
<svg
   version="1.1"
   viewBox="-5 -10 88 88"
   id="svg8"
   sodipodi:docname="research-draw.svg"
   width="88"
   height="88"
   inkscape:version="1.2.2 (b0a8486541, 2022-12-01)"
   xmlns:inkscape="http://www.inkscape.org/namespaces/inkscape"
   xmlns:sodipodi="http://sodipodi.sourceforge.net/DTD/sodipodi-0.dtd"
   xmlns="http://www.w3.org/2000/svg"
   xmlns:svg="http://www.w3.org/2000/svg">
  <defs
     id="defs12" />
  <sodipodi:namedview
     id="namedview10"
     pagecolor="#ffffff"
     bordercolor="#666666"
     borderopacity="1.0"
     inkscape:showpageshadow="2"
     inkscape:pageopacity="0.0"
     inkscape:pagecheckerboard="0"
     inkscape:deskcolor="#d1d1d1"
     showgrid="false"
     inkscape:zoom="6.4962963"
     inkscape:cx="15.008552"
     inkscape:cy="51.029076"
     inkscape:window-width="1918"
     inkscape:window-height="1078"
     inkscape:window-x="0"
     inkscape:window-y="0"
     inkscape:window-maximized="1"
     inkscape:current-layer="svg8" />
  <path
     d="m 59.333993,30.69482 -4.8984,-6.7461 v -28.449 c 0,-2.7578 -2.2422,-5 -5,-5 h -29.105 c -2.7578,0 -5,2.2422 -5,5 v 42.887 c 0,2.7578 2.2422,5 5,5 h 0.55078 v 5.2383 c 0,2.5664 1.9219,4.6719 4.3984,5.0078 -0.0039,0.21875 -0.01172,0.4375 -0.01172,0.66016 0,7.375 1.8203,11.109 3.5781,14.719 0.35156,0.71875 0.70312,1.4414 1.043,2.1992 v 5.2891 c 0,0.55469 0.44922,1 1,1 h 22.102 c 0.55469,0 1,-0.44531 1,-1 v -4.8906 l 7.9766,-26.273 c 1.5234,-5.0156 0.53125,-10.492 -2.6367,-14.637 z m -42.004,7.6914 v -42.887 c 0,-1.6562 1.3438,-3 3,-3 h 29.105 c 1.6562,0 3,1.3438 3,3 v 42.887 c 0,1.6562 -1.3438,3 -3,3 h -6 l -0.67188,-1.9648 c -1.0859,-3.1836 -1.6367,-6.5 -1.6367,-9.8633 v -4.4141 c 0,-3.1445 -2.5586,-5.7031 -5.7031,-5.7031 -3.1445,0 -5.7031,2.5586 -5.7031,5.7031 v 7.4883 c 0,2.0508 -0.17969,4.1133 -0.53125,6.1328 -0.125,0.72656 -0.38281,1.4453 -0.75781,2.1367 -0.08203,0.14844 -0.16406,0.30859 -0.25391,0.48047 h -7.8477 c -1.6562,0 -3,-1.3438 -3,-3 z m 9.9453,5 c -0.48047,1.2109 -0.96094,2.6836 -1.332,4.4141 -1.6914,-0.0078 -3.0625,-1.3828 -3.0625,-3.0742 v -1.3398 z m -4.3828,5.3594 c 0.76172,0.58203 1.6875,0.94531 2.6992,1.0195 -0.08594,0.60156 -0.15625,1.2305 -0.21094,1.8789 -1.3828,-0.26172 -2.4297,-1.4531 -2.4883,-2.8945 z m 37.164,-3.9922 -8.0195,26.414 c -0.02734,0.09375 -0.04297,0.19141 -0.04297,0.28906 v 4.0391 h -20.102 v -4.5039 c 0,-0.14063 -0.03125,-0.27734 -0.08594,-0.40625 -0.37891,-0.85156 -0.76953,-1.6562 -1.1602,-2.457 -1.7344,-3.5625 -3.375,-6.9297 -3.375,-13.844 0,-6.3828 2.0391,-10.82 2.9141,-12.434 0.48047,-0.88281 0.80859,-1.8086 0.96875,-2.75 0.37109,-2.1328 0.55859,-4.3125 0.55859,-6.4766 v -7.4883 c 0,-2.043 1.6602,-3.7031 3.7031,-3.7031 2.043,0 3.7031,1.6641 3.7031,3.7031 v 4.4141 c 0,3.582 0.58594,7.1172 1.7422,10.508 l 0.86328,2.5273 c 0.65625,1.9258 2.4648,3.2227 4.5039,3.2227 0.55469,0 1,-0.44531 1,-1 0,-0.55469 -0.44531,-1 -1,-1 -0.53125,0 -1.0352,-0.16016 -1.4648,-0.42969 h 4.6641 c 2.7578,0 5,-2.2422 5,-5 v -11.031 l 3.2969,4.5391 c 2.793,3.6523 3.6641,8.4609 2.3281,12.863 z"
     id="path2" />
</svg>
